<?xml version="1.0" standalone="no"?>
<!DOCTYPE svg PUBLIC "-//W3C//DTD SVG 20010904//EN"
 "http://www.w3.org/TR/2001/REC-SVG-20010904/DTD/svg10.dtd">
<svg version="1.0" xmlns="http://www.w3.org/2000/svg"
 width="260.000000pt" height="260.000000pt" viewBox="0 0 260.000000 260.000000"
 preserveAspectRatio="xMidYMid meet">
<metadata>
Created by potrace 1.11, written by Peter Selinger 2001-2013
</metadata>
<g transform="translate(0.000000,260.000000) scale(0.100000,-0.100000)"
fill="#000000" stroke="none">
<path d="M1900 1401 c-58 -18 -89 -42 -109 -84 -45 -93 -15 -199 67 -237 54
-26 124 -24 167 4 24 16 26 21 23 84 l-3 67 -62 0 c-69 0 -86 -17 -26 -25 36
-5 38 -7 41 -45 4 -45 -14 -65 -59 -65 -80 0 -124 61 -120 164 1 18 13 40 35
62 29 29 41 34 81 34 26 0 60 -7 76 -17 32 -19 49 -11 33 15 -21 33 -99 57
-144 43z"/>
<path d="M1435 1388 c-48 -136 -65 -218 -45 -218 12 0 11 -2 41 98 12 40 24
71 27 68 2 -3 15 -47 27 -98 20 -83 43 -124 60 -107 6 7 65 200 65 217 0 6 -6
12 -13 12 -13 0 -21 -21 -47 -119 -6 -24 -15 -40 -20 -35 -4 5 -15 42 -24 83
-9 41 -21 82 -27 93 -11 21 -37 24 -44 6z"/>
<path d="M329 1368 c-5 -10 -8 -82 -7 -160 l3 -143 50 -3 c71 -5 113 6 141 33
33 33 33 93 0 132 -21 25 -22 31 -10 48 17 23 18 74 1 97 -19 24 -165 21 -178
-4z m119 -8 c19 0 22 -5 22 -39 0 -48 -17 -63 -67 -59 -37 3 -38 4 -41 47 -4
48 9 65 43 56 11 -2 30 -5 43 -5z m30 -152 c7 -7 12 -29 12 -50 0 -46 -22 -60
-83 -56 l-42 3 -3 58 -3 57 54 0 c29 0 58 -5 65 -12z"/>
<path d="M2290 1375 c7 -8 19 -15 27 -15 13 0 13 3 3 15 -7 8 -19 15 -27 15
-13 0 -13 -3 -3 -15z"/>
<path d="M1097 1343 c-16 -4 -17 -17 -15 -131 l3 -127 59 -3 c79 -4 109 10 36
18 l-55 5 -3 48 -3 47 40 0 c42 0 62 14 35 24 -9 3 -29 6 -45 6 -28 0 -29 2
-29 45 l0 45 51 0 c36 0 49 4 47 13 -5 12 -87 20 -121 10z"/>
<path d="M2155 1330 c-10 -11 -15 -23 -12 -26 4 -4 -3 -18 -13 -32 -19 -24
-28 -72 -12 -72 18 1 32 18 26 33 -3 9 5 30 20 50 40 52 32 92 -9 47z"/>
<path d="M2346 1332 c-10 -10 -16 -12 -16 -4 0 16 -94 16 -107 0 -29 -38 -18
-92 14 -72 13 8 17 21 15 43 -4 37 7 39 36 6 23 -27 37 -31 47 -15 3 6 17 10
31 10 17 0 24 6 24 19 0 26 -24 33 -44 13z"/>
<path d="M633 1228 c-50 -137 -51 -139 -36 -145 6 -2 19 10 28 26 14 29 19 31
70 31 50 0 56 -2 70 -30 14 -27 45 -42 45 -22 0 4 -19 61 -43 127 -38 108 -45
120 -68 123 -24 3 -28 -4 -66 -110z m90 3 c18 -63 16 -71 -21 -71 -48 0 -54
11 -36 66 9 27 18 55 20 63 7 22 20 2 37 -58z"/>
<path d="M862 1213 c3 -106 6 -128 18 -128 11 0 15 13 15 54 0 30 5 56 10 57
6 2 29 -24 52 -57 24 -32 50 -59 58 -59 24 0 18 13 -30 76 -25 31 -45 62 -45
67 0 5 20 32 45 60 37 42 42 53 28 56 -11 2 -34 -16 -65 -50 -26 -30 -48 -49
-49 -44 -1 6 -2 28 -3 50 -1 29 -6 40 -19 43 -16 3 -17 -6 -15 -125z"/>
<path d="M2360 1246 c0 -16 7 -27 20 -31 11 -3 20 -14 20 -23 -1 -15 -2 -15
-11 1 -8 13 -18 17 -34 13 -13 -3 -27 0 -34 8 -7 8 -32 13 -66 13 -51 0 -55
-2 -49 -20 4 -11 1 -23 -7 -29 -10 -6 0 -8 27 -4 26 4 55 1 74 -8 l32 -13 -26
-7 c-24 -6 -27 -11 -24 -39 2 -27 -1 -33 -19 -35 -18 -3 -23 3 -29 33 -6 35
-8 37 -40 32 -26 -4 -32 -2 -27 9 3 8 -1 14 -10 14 -10 0 -15 -8 -13 -23 4
-37 14 -47 46 -41 24 5 29 3 32 -16 5 -39 30 -46 80 -20 39 19 44 25 40 47 -4
22 -2 24 18 18 16 -5 20 -4 15 4 -9 16 13 41 31 34 11 -4 14 4 14 36 0 23 -4
41 -10 41 -5 0 -10 7 -10 15 0 8 -9 15 -20 15 -15 0 -20 -7 -20 -24z"/>
</g>
</svg>
